<svg xmlns="http://www.w3.org/2000/svg" xmlns:xlink="http://www.w3.org/1999/xlink" width="500" zoomAndPan="magnify" viewBox="0 0 375 374.999991" height="500" preserveAspectRatio="xMidYMid meet" version="1.0"><defs><g/><clipPath id="a9b3ddb2ff"><path d="M 9.28125 87.25 L 365.53125 87.25 L 365.53125 287.5 L 9.28125 287.5 Z M 9.28125 87.25 " clip-rule="nonzero"/></clipPath><clipPath id="5ce9d4e695"><path d="M 9.414062 72.789062 L 374.367188 87.445312 L 365.699219 303.273438 L 0.746094 288.613281 Z M 9.414062 72.789062 " clip-rule="nonzero"/></clipPath><clipPath id="2be68abcff"><path d="M -2.589844 -1.941406 L 395.339844 14.042969 L 379.027344 420.214844 L -18.902344 404.230469 Z M -2.589844 -1.941406 " clip-rule="nonzero"/></clipPath></defs><g clip-path="url(#a9b3ddb2ff)"><g clip-path="url(#5ce9d4e695)"><g clip-path="url(#2be68abcff)"><path fill="#d34a24" d="M 333.308594 37.023438 C 330.949219 28.675781 328.550781 19.992188 325.910156 11.253906 L 364.039062 12.785156 C 366.070312 18.542969 368.019531 24.347656 369.929688 30.167969 C 376.074219 48.882812 382.613281 69.8125 392.277344 88.378906 L 389.988281 145.378906 C 355.597656 122.632812 344.160156 75.441406 333.308594 37.023438 Z M 295.359375 239.148438 C 324.171875 248.695312 355.289062 250.882812 385.652344 253.289062 L 386.710938 226.992188 C 360.730469 224.472656 334.640625 221.164062 310.121094 212.839844 C 252.464844 193.265625 251.820312 125.78125 245.40625 73.949219 C 243.261719 56.636719 241.96875 31.566406 237.171875 7.691406 L 212.457031 6.695312 C 222.652344 36.898438 224.941406 73.5 228.324219 96.464844 C 235.839844 147.496094 237.847656 220.097656 295.359375 239.148438 Z M 122.855469 49.355469 C 154.25 55.355469 163.191406 76.410156 164.691406 106.132812 C 166.964844 151.230469 157.761719 196.828125 155.179688 241.742188 C 153.078125 278.269531 150.054688 329.398438 177.929688 357.933594 C 199.492188 380.003906 228.574219 373.558594 256.074219 376.488281 C 287.683594 379.855469 315.804688 392.542969 341.054688 410.402344 L 379.28125 411.9375 L 380.789062 374.417969 C 345.507812 360.570312 303.203125 359.734375 267.175781 359.183594 C 238.320312 358.738281 214.097656 358.484375 195.089844 332.746094 C 171.382812 300.636719 171.996094 253.890625 172.195312 215.851562 C 172.433594 170.007812 178.707031 122.570312 171.832031 76.992188 C 167.730469 49.796875 156.894531 30.1875 128.328125 25.179688 C 84.355469 17.472656 36.46875 46.660156 -3.566406 24.277344 L -4.722656 53.117188 C 35.507812 61.519531 81.769531 41.5 122.855469 49.355469 Z M 60.046875 224.542969 C 64.78125 259.503906 60.351562 295.347656 62.292969 330.480469 C 63.558594 353.359375 66.65625 380.152344 79.835938 399.910156 L 112.613281 401.226562 C 87.773438 378.488281 89.136719 335.917969 91.152344 305.300781 C 93.894531 263.652344 104.261719 221.945312 103.65625 180.105469 C 103.210938 149.269531 92.488281 134.210938 62.011719 126.785156 C 39.804688 121.371094 16.097656 121.820312 -7.488281 121.980469 L -9.136719 162.960938 C 0.0859375 165.398438 9.195312 168.277344 18.070312 171.984375 C 43.976562 182.816406 56.265625 196.605469 60.046875 224.542969 Z M 60.046875 224.542969 " fill-opacity="1" fill-rule="nonzero"/><path fill="#ffaf00" d="M 299.367188 45.65625 C 297.039062 34.761719 294.757812 22.460938 291.863281 9.886719 L 325.910156 11.253906 C 328.550781 19.992188 330.949219 28.675781 333.308594 37.027344 C 344.160156 75.441406 355.597656 122.632812 389.988281 145.378906 L 388.726562 176.71875 C 382.910156 175.429688 377.210938 173.890625 371.65625 172.039062 C 318.472656 154.304688 309.691406 93.933594 299.367188 45.65625 Z M 206.628906 145.488281 C 210.246094 181.019531 213.59375 219.671875 228.667969 252.597656 C 241.25 280.078125 258.457031 290.964844 287.175781 294.230469 C 319.136719 297.867188 351.609375 296.105469 383.699219 296.214844 C 383.777344 296.214844 383.851562 296.214844 383.929688 296.214844 L 385.652344 253.289062 C 355.289062 250.882812 324.171875 248.695312 295.359375 239.152344 C 237.847656 220.101562 235.839844 147.496094 228.324219 96.46875 C 224.941406 73.5 222.652344 36.898438 212.457031 6.695312 L 182.039062 5.476562 C 186.617188 14.328125 189.683594 24.292969 192.101562 33.859375 C 201.277344 70.191406 202.851562 108.371094 206.628906 145.488281 Z M 111.925781 72.574219 C 143.574219 78.613281 153.527344 97.351562 153.257812 127.992188 C 152.851562 173.65625 140.351562 219.082031 135.628906 264.363281 C 132.011719 299.070312 126.753906 351.984375 158.332031 376.457031 C 183.734375 396.140625 214.453125 381.554688 242.710938 388.277344 C 256.019531 391.441406 267.351562 398.664062 277.5 407.847656 L 341.054688 410.398438 C 315.804688 392.542969 287.683594 379.855469 256.074219 376.488281 C 228.574219 373.554688 199.488281 380.003906 177.925781 357.929688 C 150.050781 329.394531 153.074219 278.265625 155.175781 241.742188 C 157.761719 196.824219 166.964844 151.226562 164.6875 106.128906 C 163.1875 76.410156 154.246094 55.351562 122.851562 49.351562 C 81.769531 41.5 35.507812 61.519531 -4.722656 53.117188 L -5.691406 77.261719 C 32.726562 78.777344 74.964844 65.523438 111.925781 72.574219 Z M 8.929688 271.652344 C 19.355469 299.554688 21.515625 329.9375 29.222656 358.59375 C 32.949219 372.457031 37.675781 386.304688 44.824219 398.503906 L 79.839844 399.910156 C 66.660156 380.152344 63.558594 353.359375 62.292969 330.480469 C 60.351562 295.347656 64.78125 259.503906 60.050781 224.542969 C 56.265625 196.605469 43.976562 182.816406 18.070312 171.984375 C 9.199219 168.277344 0.0898438 165.398438 -9.132812 162.960938 L -12.226562 239.941406 C -3.210938 248.890625 4.234375 259.101562 8.929688 271.652344 Z M 8.929688 271.652344 " fill-opacity="1" fill-rule="nonzero"/><path fill="#3c7f72" d="M 269.578125 57.488281 C 267.488281 43.804688 265.734375 26.367188 262.5 8.707031 L 291.863281 9.886719 C 294.757812 22.460938 297.039062 34.761719 299.367188 45.65625 C 309.691406 93.929688 318.472656 154.304688 371.65625 172.039062 C 377.210938 173.890625 382.910156 175.429688 388.726562 176.71875 L 387.734375 201.445312 C 370.140625 199.4375 353.074219 196.386719 337.144531 190.984375 C 281.074219 171.964844 277.335938 108.300781 269.578125 57.488281 Z M 383.699219 296.214844 C 351.609375 296.101562 319.136719 297.867188 287.175781 294.230469 C 258.457031 290.964844 241.25 280.078125 228.667969 252.597656 C 213.59375 219.671875 210.246094 181.019531 206.628906 145.488281 C 202.851562 108.371094 201.277344 70.191406 192.101562 33.855469 C 189.683594 24.292969 186.617188 14.328125 182.039062 5.476562 L 145.867188 4.023438 C 165.796875 11.601562 174.363281 30.484375 179.171875 52.078125 C 188.765625 95.171875 186.328125 140.695312 188.632812 184.523438 C 190.644531 222.734375 192.136719 266.242188 212.3125 300.015625 C 228.867188 327.730469 249.492188 332.636719 279.402344 333.042969 C 311.726562 333.480469 347.890625 329.726562 382.496094 331.902344 L 383.929688 296.214844 C 383.851562 296.214844 383.777344 296.214844 383.699219 296.214844 Z M 94.527344 94.648438 C 125.511719 100.570312 136.335938 118.175781 134.875 148.5625 C 132.652344 194.800781 117.574219 240.230469 111.414062 285.988281 C 106.847656 319.90625 100.558594 373.878906 136.347656 394.277344 C 166.832031 411.65625 199.550781 388.292969 230.121094 397.921875 C 235.847656 399.722656 240.542969 402.746094 244.546875 406.523438 L 277.5 407.847656 C 267.351562 398.664062 256.019531 391.445312 242.714844 388.277344 C 214.457031 381.554688 183.738281 396.144531 158.335938 376.457031 C 126.757812 351.984375 132.011719 299.074219 135.632812 264.363281 C 140.355469 219.085938 152.855469 173.65625 153.257812 127.992188 C 153.53125 97.351562 143.578125 78.617188 111.925781 72.578125 C 74.964844 65.523438 32.726562 78.777344 -5.691406 77.261719 L -6.558594 98.777344 C 27.5625 96.84375 63.480469 88.714844 94.527344 94.648438 Z M 29.222656 358.59375 C 21.515625 329.941406 19.359375 299.554688 8.929688 271.652344 C 4.234375 259.101562 -3.210938 248.890625 -12.226562 239.941406 L -17.21875 364.199219 C -12.960938 371.867188 -8.625 379.480469 -3.863281 386.824219 C -1.65625 390.226562 0.628906 393.558594 2.992188 396.820312 L 44.824219 398.5 C 37.675781 386.304688 32.949219 372.457031 29.222656 358.59375 Z M 29.222656 358.59375 " fill-opacity="1" fill-rule="nonzero"/><path fill="#969200" d="M 369.929688 30.167969 C 368.019531 24.347656 366.070312 18.542969 364.039062 12.785156 L 395.261719 14.039062 L 392.277344 88.378906 C 382.613281 69.8125 376.074219 48.882812 369.929688 30.167969 Z M 310.121094 212.839844 C 334.640625 221.164062 360.730469 224.472656 386.710938 226.992188 L 387.734375 201.445312 C 370.140625 199.4375 353.074219 196.386719 337.144531 190.984375 C 281.074219 171.964844 277.335938 108.300781 269.578125 57.488281 C 267.488281 43.804688 265.734375 26.367188 262.5 8.707031 L 237.171875 7.691406 C 241.96875 31.566406 243.265625 56.636719 245.40625 73.949219 C 251.820312 125.78125 252.464844 193.265625 310.121094 212.839844 Z M 128.328125 25.179688 C 156.894531 30.1875 167.730469 49.796875 171.832031 76.992188 C 178.707031 122.570312 172.4375 170.007812 172.195312 215.851562 C 171.996094 253.890625 171.382812 300.636719 195.089844 332.746094 C 214.097656 358.484375 238.320312 358.738281 267.175781 359.179688 C 303.203125 359.734375 345.507812 360.570312 380.789062 374.417969 L 382.496094 331.902344 C 347.890625 329.722656 311.726562 333.480469 279.402344 333.042969 C 249.488281 332.636719 228.867188 327.726562 212.3125 300.015625 C 192.136719 266.242188 190.644531 222.734375 188.632812 184.523438 C 186.328125 140.695312 188.765625 95.171875 179.171875 52.074219 C 174.363281 30.484375 165.796875 11.601562 145.867188 4.023438 L 102.296875 2.273438 C 70.871094 7.496094 40.011719 20.105469 12.089844 -1.351562 L 4.414062 -1.660156 L -2.511719 -1.9375 L -2.789062 4.988281 L -3.566406 24.277344 C 36.46875 46.660156 84.355469 17.472656 128.328125 25.179688 Z M 62.011719 126.785156 C 92.492188 134.210938 103.210938 149.269531 103.65625 180.105469 C 104.261719 221.945312 93.894531 263.652344 91.152344 305.300781 C 89.140625 335.917969 87.773438 378.488281 112.617188 401.226562 L 244.546875 406.523438 C 240.542969 402.746094 235.847656 399.726562 230.121094 397.921875 C 199.546875 388.292969 166.832031 411.660156 136.34375 394.28125 C 100.558594 373.878906 106.847656 319.910156 111.414062 285.988281 C 117.570312 240.230469 132.652344 194.804688 134.875 148.5625 C 136.335938 118.175781 125.511719 100.570312 94.527344 94.648438 C 63.480469 88.714844 27.5625 96.84375 -6.558594 98.777344 L -7.488281 121.980469 C 16.097656 121.824219 39.804688 121.371094 62.011719 126.785156 Z M -17.21875 364.203125 L -18.492188 395.960938 L 2.992188 396.820312 C 0.628906 393.5625 -1.65625 390.226562 -3.863281 386.828125 C -8.625 379.480469 -12.960938 371.867188 -17.21875 364.203125 Z M -17.21875 364.203125 " fill-opacity="1" fill-rule="nonzero"/></g></g></g><g fill="#ffffff" fill-opacity="1"><g transform="translate(11.98296, 218.706409)"><g><path d="M 2.390625 -42.875 C 2.390625 -55.269531 6.609375 -65.757812 15.046875 -74.34375 C 23.492188 -82.925781 33.671875 -87.21875 45.578125 -87.21875 C 57.554688 -87.21875 67.734375 -82.941406 76.109375 -74.390625 C 84.484375 -65.835938 88.671875 -55.332031 88.671875 -42.875 C 88.671875 -30.351562 84.550781 -19.816406 76.3125 -11.265625 C 68.070312 -2.710938 57.828125 1.5625 45.578125 1.5625 C 33.046875 1.5625 22.710938 -2.675781 14.578125 -11.15625 C 6.453125 -19.632812 2.390625 -30.207031 2.390625 -42.875 Z M 23.46875 -42.875 C 23.46875 -38.375 24.160156 -34.269531 25.546875 -30.5625 C 26.929688 -26.863281 29.351562 -23.734375 32.8125 -21.171875 C 36.269531 -18.617188 40.523438 -17.34375 45.578125 -17.34375 C 52.847656 -17.34375 58.332031 -19.832031 62.03125 -24.8125 C 65.738281 -29.800781 67.59375 -35.820312 67.59375 -42.875 C 67.59375 -49.875 65.707031 -55.878906 61.9375 -60.890625 C 58.164062 -65.910156 52.710938 -68.421875 45.578125 -68.421875 C 38.515625 -68.421875 33.0625 -65.910156 29.21875 -60.890625 C 25.382812 -55.878906 23.46875 -49.875 23.46875 -42.875 Z M 23.46875 -42.875 "/></g></g></g><g fill="#ffffff" fill-opacity="1"><g transform="translate(92.86975, 218.706409)"><g><path d="M 34.578125 -39.765625 C 31.117188 -39.765625 28.140625 -38.484375 25.640625 -35.921875 C 23.148438 -33.359375 21.90625 -30.28125 21.90625 -26.6875 C 21.90625 -23.019531 23.148438 -19.90625 25.640625 -17.34375 C 28.140625 -14.78125 31.117188 -13.5 34.578125 -13.5 C 36.234375 -13.5 37.804688 -13.707031 39.296875 -14.125 C 40.785156 -14.539062 41.875 -14.953125 42.5625 -15.359375 L 43.5 -15.984375 L 49.734375 -3.21875 C 49.242188 -2.875 48.566406 -2.441406 47.703125 -1.921875 C 46.835938 -1.398438 44.863281 -0.691406 41.78125 0.203125 C 38.707031 1.109375 35.40625 1.5625 31.875 1.5625 C 24.050781 1.5625 17.179688 -1.1875 11.265625 -6.6875 C 5.347656 -12.195312 2.390625 -18.789062 2.390625 -26.46875 C 2.390625 -34.226562 5.347656 -40.894531 11.265625 -46.46875 C 17.179688 -52.039062 24.050781 -54.828125 31.875 -54.828125 C 35.40625 -54.828125 38.65625 -54.410156 41.625 -53.578125 C 44.601562 -52.742188 46.71875 -51.910156 47.96875 -51.078125 L 49.734375 -49.84375 L 43.5 -37.28125 C 41.21875 -38.9375 38.242188 -39.765625 34.578125 -39.765625 Z M 34.578125 -39.765625 "/></g></g></g><g fill="#ffffff" fill-opacity="1"><g transform="translate(133.676569, 218.706409)"><g><path d="M 9.34375 -53.265625 L 9.34375 -73.09375 L 27.71875 -73.09375 L 27.71875 -53.265625 L 38.9375 -53.265625 L 38.9375 -39.25 L 27.71875 -39.25 L 27.71875 -22.328125 C 27.71875 -17.410156 29.101562 -14.953125 31.875 -14.953125 C 32.5625 -14.953125 33.285156 -15.085938 34.046875 -15.359375 C 34.816406 -15.640625 35.410156 -15.921875 35.828125 -16.203125 L 36.4375 -16.609375 L 41.015625 -1.765625 C 37.066406 0.453125 32.566406 1.5625 27.515625 1.5625 C 24.054688 1.5625 21.078125 0.957031 18.578125 -0.25 C 16.085938 -1.46875 14.203125 -3.097656 12.921875 -5.140625 C 11.640625 -7.179688 10.722656 -9.328125 10.171875 -11.578125 C 9.617188 -13.828125 9.34375 -16.234375 9.34375 -18.796875 L 9.34375 -39.25 L 1.65625 -39.25 L 1.65625 -53.265625 Z M 9.34375 -53.265625 "/></g></g></g><g fill="#ffffff" fill-opacity="1"><g transform="translate(164.515299, 218.706409)"><g><path d="M 9.859375 -6.59375 C 4.878906 -12.03125 2.390625 -18.691406 2.390625 -26.578125 C 2.390625 -34.472656 4.878906 -41.15625 9.859375 -46.625 C 14.847656 -52.09375 21.179688 -54.828125 28.859375 -54.828125 C 35.921875 -54.828125 41.738281 -52.609375 46.3125 -48.171875 L 46.3125 -53.265625 L 64.6875 -53.265625 L 64.6875 0 L 46.515625 0 L 46.515625 -6.015625 L 46.3125 -6.015625 C 41.738281 -0.960938 35.921875 1.5625 28.859375 1.5625 C 21.179688 1.5625 14.847656 -1.15625 9.859375 -6.59375 Z M 25.484375 -35.609375 C 23.097656 -33.253906 21.90625 -30.242188 21.90625 -26.578125 C 21.90625 -22.910156 23.046875 -19.914062 25.328125 -17.59375 C 27.617188 -15.28125 30.628906 -14.125 34.359375 -14.125 C 37.960938 -14.125 40.921875 -15.300781 43.234375 -17.65625 C 45.554688 -20.007812 46.71875 -22.984375 46.71875 -26.578125 C 46.71875 -30.242188 45.523438 -33.253906 43.140625 -35.609375 C 40.753906 -37.960938 37.828125 -39.140625 34.359375 -39.140625 C 30.835938 -39.140625 27.878906 -37.960938 25.484375 -35.609375 Z M 25.484375 -35.609375 "/></g></g></g><g fill="#ffffff" fill-opacity="1"><g transform="translate(225.258269, 218.706409)"><g><path d="M 6.234375 0 L 6.234375 -53.265625 L 24.609375 -53.265625 L 24.609375 -47.65625 L 24.8125 -47.65625 C 29.59375 -52.4375 34.679688 -54.828125 40.078125 -54.828125 C 42.703125 -54.828125 45.3125 -54.476562 47.90625 -53.78125 C 50.507812 -53.09375 53.003906 -52.019531 55.390625 -50.5625 C 57.773438 -49.113281 59.710938 -47.054688 61.203125 -44.390625 C 62.691406 -41.722656 63.4375 -38.625 63.4375 -35.09375 L 63.4375 0 L 45.0625 0 L 45.0625 -30.109375 C 45.0625 -32.878906 44.175781 -35.300781 42.40625 -37.375 C 40.644531 -39.457031 38.347656 -40.5 35.515625 -40.5 C 32.742188 -40.5 30.234375 -39.425781 27.984375 -37.28125 C 25.734375 -35.132812 24.609375 -32.742188 24.609375 -30.109375 L 24.609375 0 Z M 6.234375 0 "/></g></g></g><g fill="#ffffff" fill-opacity="1"><g transform="translate(283.716885, 218.706409)"><g><path d="M 60.109375 -24.09375 L 21.5 -24.09375 C 21.5 -20.351562 22.707031 -17.582031 25.125 -15.78125 C 27.550781 -13.976562 30.179688 -13.078125 33.015625 -13.078125 C 35.992188 -13.078125 38.347656 -13.472656 40.078125 -14.265625 C 41.804688 -15.066406 43.78125 -16.644531 46 -19 L 59.28125 -12.359375 C 53.75 -3.078125 44.546875 1.5625 31.671875 1.5625 C 23.640625 1.5625 16.75 -1.1875 11 -6.6875 C 5.257812 -12.195312 2.390625 -18.828125 2.390625 -26.578125 C 2.390625 -34.328125 5.257812 -40.972656 11 -46.515625 C 16.75 -52.054688 23.640625 -54.828125 31.671875 -54.828125 C 40.109375 -54.828125 46.972656 -52.382812 52.265625 -47.5 C 57.566406 -42.625 60.21875 -35.648438 60.21875 -26.578125 C 60.21875 -25.335938 60.179688 -24.507812 60.109375 -24.09375 Z M 22.015625 -34.265625 L 42.265625 -34.265625 C 41.847656 -37.035156 40.753906 -39.160156 38.984375 -40.640625 C 37.222656 -42.128906 34.957031 -42.875 32.1875 -42.875 C 29.144531 -42.875 26.722656 -42.078125 24.921875 -40.484375 C 23.117188 -38.898438 22.148438 -36.828125 22.015625 -34.265625 Z M 22.015625 -34.265625 "/></g></g></g><g fill="#ffffff" fill-opacity="1"><g transform="translate(336.153119, 218.706409)"><g><path d="M 18.0625 -22.21875 C 21.382812 -22.21875 24.203125 -21.054688 26.515625 -18.734375 C 28.835938 -16.421875 30 -13.601562 30 -10.28125 C 30 -7.03125 28.835938 -4.242188 26.515625 -1.921875 C 24.203125 0.398438 21.382812 1.5625 18.0625 1.5625 C 14.8125 1.5625 12.023438 0.398438 9.703125 -1.921875 C 7.390625 -4.242188 6.234375 -7.03125 6.234375 -10.28125 C 6.234375 -13.601562 7.390625 -16.421875 9.703125 -18.734375 C 12.023438 -21.054688 14.8125 -22.21875 18.0625 -22.21875 Z M 18.0625 -22.21875 "/></g></g></g></svg>