<svg xmlns="http://www.w3.org/2000/svg" xmlns:xlink="http://www.w3.org/1999/xlink" width="500" zoomAndPan="magnify" viewBox="0 0 375 374.999991" height="500" preserveAspectRatio="xMidYMid meet" version="1.0"><defs><g/><clipPath id="b3fba024fa"><path d="M 21 9.039062 L 104 9.039062 L 104 29 L 21 29 Z M 21 9.039062 " clip-rule="nonzero"/></clipPath><clipPath id="34893be541"><path d="M 9.804688 271 L 20 271 L 20 353 L 9.804688 353 Z M 9.804688 271 " clip-rule="nonzero"/></clipPath><clipPath id="c8a6ee7f62"><path d="M 9.804688 9.039062 L 366 9.039062 L 366 366 L 9.804688 366 Z M 9.804688 9.039062 " clip-rule="nonzero"/></clipPath></defs><g clip-path="url(#b3fba024fa)"><path fill="#3c7f72" d="M 22.949219 9.039062 L 103.707031 9.039062 L 78.753906 28.835938 L 21.835938 18.9375 Z M 22.949219 9.039062 " fill-opacity="1" fill-rule="nonzero"/></g><g clip-path="url(#34893be541)"><path fill="#3c7f72" d="M 9.875 271.484375 L 9.875 352.292969 C 28.042969 326.550781 15.671875 299.40625 9.875 271.484375 Z M 9.875 271.484375 " fill-opacity="1" fill-rule="nonzero"/></g><g clip-path="url(#c8a6ee7f62)"><path fill="#d34a24" d="M 311.433594 31.816406 C 309.023438 24.433594 306.570312 16.753906 303.894531 9.039062 L 338.027344 9.039062 C 340.050781 14.109375 342 19.230469 343.917969 24.367188 C 350.082031 40.882812 356.675781 59.359375 365.980469 75.613281 L 365.980469 126.660156 C 334.425781 107.558594 322.511719 65.773438 311.433594 31.816406 Z M 284.769531 213.898438 C 310.863281 221.398438 338.753906 222.238281 365.980469 223.300781 L 365.980469 199.746094 C 342.671875 198.429688 319.234375 196.40625 297.019531 189.84375 C 244.78125 174.414062 241.785156 114.097656 234.191406 67.984375 C 231.652344 52.582031 229.597656 30.214844 224.453125 9.039062 L 202.324219 9.039062 C 212.519531 35.671875 215.882812 68.320312 219.730469 88.730469 C 228.28125 134.085938 232.679688 198.929688 284.769531 213.898438 Z M 123.769531 50.394531 C 152.046875 54.632812 160.792969 73.140625 163.203125 99.660156 C 166.855469 139.898438 160.265625 181 159.566406 221.253906 C 159 253.984375 158.132812 299.808594 184.074219 324.320312 C 204.136719 343.28125 229.902344 336.472656 254.585938 338.105469 C 282.960938 339.984375 308.550781 350.316406 331.757812 365.375 L 365.980469 365.375 L 365.980469 331.777344 C 333.949219 320.664062 296.109375 321.433594 263.886719 322.234375 C 238.078125 322.875 216.421875 323.515625 198.507812 301.183594 C 176.164062 273.328125 175.035156 231.507812 173.847656 197.492188 C 172.417969 156.492188 176.320312 113.855469 168.539062 73.347656 C 163.898438 49.179688 153.507812 32.035156 127.796875 28.585938 C 88.214844 23.273438 46.464844 51.089844 9.875 32.515625 L 9.875 58.339844 C 46.136719 64.410156 86.765625 44.851562 123.769531 50.394531 Z M 73.921875 209.289062 C 79.40625 240.378906 76.734375 272.585938 79.730469 303.929688 C 81.683594 324.339844 85.417969 348.183594 97.90625 365.375 L 127.25 365.375 C 104.230469 345.9375 103.921875 307.828125 104.625 280.378906 C 105.578125 243.042969 113.347656 205.378906 111.304688 167.992188 C 109.796875 140.4375 99.675781 127.355469 72.167969 121.8125 C 52.125 117.769531 30.953125 119.023438 9.875 120.011719 L 9.875 156.710938 C 18.207031 158.558594 26.453125 160.808594 34.515625 163.804688 C 58.0625 172.558594 69.539062 184.449219 73.921875 209.289062 Z M 73.921875 209.289062 " fill-opacity="1" fill-rule="nonzero"/><path fill="#ffaf00" d="M 281.40625 40.75 C 278.933594 31.09375 276.453125 20.175781 273.414062 9.039062 L 303.894531 9.039062 C 306.570312 16.753906 309.023438 24.433594 311.433594 31.816406 C 322.511719 65.773438 334.425781 107.558594 365.980469 126.660156 L 365.980469 154.726562 C 360.734375 153.78125 355.585938 152.613281 350.554688 151.15625 C 302.382812 137.207031 292.367188 83.542969 281.40625 40.75 Z M 202.097656 133.34375 C 206.605469 164.980469 210.988281 199.421875 225.644531 228.320312 C 237.875 252.4375 253.644531 261.554688 279.433594 263.441406 C 308.128906 265.542969 337.089844 262.804688 365.777344 261.75 C 365.84375 261.746094 365.914062 261.742188 365.980469 261.742188 L 365.980469 223.300781 C 338.753906 222.238281 310.863281 221.398438 284.769531 213.902344 C 232.679688 198.933594 228.28125 134.089844 219.730469 88.734375 C 215.882812 68.320312 212.519531 35.671875 202.324219 9.039062 L 175.097656 9.039062 C 179.503906 16.789062 182.605469 25.589844 185.105469 34.054688 C 194.613281 66.210938 197.390625 100.289062 202.097656 133.34375 Z M 114.835938 71.550781 C 143.339844 75.8125 152.910156 92.207031 153.765625 119.613281 C 155.042969 160.457031 145.503906 201.523438 142.90625 242.179688 C 140.917969 273.34375 138.121094 320.839844 167.222656 341.585938 C 190.636719 358.277344 217.570312 344.132812 243.066406 349.128906 C 255.074219 351.480469 265.460938 357.53125 274.859375 365.375 L 331.757812 365.375 C 308.550781 350.316406 282.957031 339.980469 254.585938 338.105469 C 229.898438 336.472656 204.136719 343.28125 184.070312 324.320312 C 158.132812 299.808594 159 253.984375 159.566406 221.25 C 160.261719 181 166.855469 139.898438 163.199219 99.65625 C 160.792969 73.136719 152.046875 54.632812 123.769531 50.394531 C 86.765625 44.851562 46.136719 64.410156 9.875 58.339844 L 9.875 79.964844 C 44.269531 79.941406 81.546875 66.574219 114.835938 71.550781 Z M 29.921875 253.25 C 40.246094 277.820312 43.265625 304.910156 51.183594 330.253906 C 55.011719 342.511719 59.734375 354.726562 66.5625 365.375 L 97.90625 365.375 C 85.417969 348.183594 81.683594 324.339844 79.734375 303.929688 C 76.734375 272.585938 79.410156 240.378906 73.925781 209.289062 C 69.539062 184.449219 58.0625 172.558594 34.515625 163.804688 C 26.453125 160.808594 18.207031 158.5625 9.878906 156.710938 L 9.878906 225.652344 C 18.257812 233.328125 25.277344 242.191406 29.921875 253.25 Z M 29.921875 253.25 " fill-opacity="1" fill-rule="nonzero"/><path fill="#3c7f72" d="M 255.203125 52.398438 C 252.84375 40.238281 250.652344 24.710938 247.125 9.039062 L 273.414062 9.039062 C 276.453125 20.175781 278.933594 31.09375 281.40625 40.75 C 292.367188 83.542969 302.382812 137.207031 350.554688 151.15625 C 355.585938 152.613281 360.734375 153.78125 365.980469 154.726562 L 365.980469 176.871094 C 350.183594 175.707031 334.820312 173.59375 320.386719 169.332031 C 269.585938 154.34375 263.960938 97.550781 255.203125 52.398438 Z M 365.777344 261.75 C 337.089844 262.800781 308.128906 265.542969 279.433594 263.441406 C 253.644531 261.554688 237.875 252.4375 225.644531 228.316406 C 210.988281 199.421875 206.605469 164.980469 202.097656 133.339844 C 197.390625 100.289062 194.613281 66.210938 185.105469 34.050781 C 182.605469 25.589844 179.503906 16.789062 175.097656 9.039062 L 142.710938 9.039062 C 160.796875 15.097656 169.132812 31.671875 174.203125 50.808594 C 184.328125 88.996094 183.78125 129.785156 187.414062 168.890625 C 190.585938 202.984375 193.484375 241.832031 212.726562 271.300781 C 228.519531 295.488281 247.128906 299.136719 273.878906 298.425781 C 302.785156 297.65625 334.972656 292.996094 365.980469 293.703125 L 365.980469 261.742188 C 365.914062 261.742188 365.84375 261.746094 365.777344 261.75 Z M 100.078125 91.910156 C 127.984375 96.09375 138.292969 111.445312 138.078125 138.667969 C 137.75 180.089844 125.902344 221.25 122.039062 262.382812 C 119.175781 292.875 115.492188 341.359375 148.210938 358.3125 C 176.085938 372.757812 204.488281 350.691406 232.160156 358.203125 C 237.339844 359.609375 241.648438 362.140625 245.359375 365.375 L 274.863281 365.375 C 265.464844 357.53125 255.074219 351.480469 243.066406 349.128906 C 217.570312 344.132812 190.636719 358.277344 167.226562 341.589844 C 138.121094 320.84375 140.921875 273.34375 142.910156 242.179688 C 145.503906 201.523438 155.046875 160.460938 153.769531 119.613281 C 152.910156 92.207031 143.34375 75.816406 114.835938 71.550781 C 81.546875 66.574219 44.269531 79.941406 9.875 79.964844 L 9.875 99.234375 C 40.300781 96.28125 72.113281 87.71875 100.078125 91.910156 Z M 51.183594 330.253906 C 43.265625 304.910156 40.246094 277.820312 29.921875 253.25 C 25.277344 242.191406 18.257812 233.328125 9.875 225.652344 L 9.875 336.933594 C 13.957031 343.636719 18.105469 350.289062 22.625 356.683594 C 24.71875 359.644531 26.882812 362.542969 29.113281 365.375 L 66.5625 365.375 C 59.734375 354.726562 55.011719 342.511719 51.183594 330.253906 Z M 51.183594 330.253906 " fill-opacity="1" fill-rule="nonzero"/><path fill="#969200" d="M 343.917969 24.367188 C 342 19.230469 340.050781 14.109375 338.027344 9.039062 L 365.980469 9.039062 L 365.980469 75.613281 C 356.675781 59.359375 350.082031 40.882812 343.917969 24.367188 Z M 297.019531 189.84375 C 319.234375 196.40625 342.671875 198.429688 365.980469 199.746094 L 365.980469 176.871094 C 350.183594 175.707031 334.820312 173.59375 320.386719 169.332031 C 269.585938 154.34375 263.960938 97.550781 255.203125 52.398438 C 252.84375 40.238281 250.652344 24.710938 247.125 9.039062 L 224.453125 9.039062 C 229.597656 30.214844 231.652344 52.582031 234.191406 67.984375 C 241.785156 114.097656 244.78125 174.414062 297.019531 189.84375 Z M 127.796875 28.585938 C 153.507812 32.035156 163.898438 49.179688 168.539062 73.347656 C 176.320312 113.855469 172.417969 156.492188 173.847656 197.488281 C 175.035156 231.507812 176.164062 273.328125 198.507812 301.183594 C 216.421875 323.515625 238.078125 322.875 263.886719 322.234375 C 296.109375 321.433594 333.949219 320.660156 365.980469 331.773438 L 365.980469 293.703125 C 334.972656 292.996094 302.785156 297.652344 273.878906 298.421875 C 247.125 299.136719 228.519531 295.484375 212.726562 271.300781 C 193.484375 241.832031 190.585938 202.980469 187.414062 168.890625 C 183.78125 129.785156 184.328125 88.992188 174.203125 50.808594 C 169.128906 31.671875 160.796875 15.097656 142.710938 9.039062 L 103.707031 9.039062 C 75.804688 14.835938 48.675781 27.21875 22.949219 9.039062 L 9.875 9.039062 L 9.875 32.511719 C 46.464844 51.089844 88.214844 23.273438 127.796875 28.585938 Z M 72.171875 121.8125 C 99.679688 127.359375 109.800781 140.4375 111.304688 167.992188 C 113.347656 205.378906 105.578125 243.042969 104.625 280.378906 C 103.921875 307.828125 104.230469 345.9375 127.25 365.375 L 245.359375 365.375 C 241.648438 362.140625 237.339844 359.609375 232.15625 358.203125 C 204.488281 350.691406 176.082031 372.757812 148.210938 358.3125 C 115.492188 341.359375 119.175781 292.875 122.039062 262.386719 C 125.902344 221.25 137.75 180.09375 138.074219 138.667969 C 138.292969 111.445312 127.984375 96.09375 100.078125 91.910156 C 72.113281 87.71875 40.300781 96.28125 9.875 99.234375 L 9.875 120.011719 C 30.953125 119.023438 52.125 117.769531 72.171875 121.8125 Z M 9.875 336.933594 L 9.875 365.375 L 29.113281 365.375 C 26.882812 362.542969 24.71875 359.644531 22.625 356.683594 C 18.105469 350.289062 13.957031 343.636719 9.875 336.933594 Z M 9.875 336.933594 " fill-opacity="1" fill-rule="nonzero"/></g><g fill="#ffffff" fill-opacity="1"><g transform="translate(11.98296, 218.706409)"><g><path d="M 2.390625 -42.875 C 2.390625 -55.269531 6.609375 -65.757812 15.046875 -74.34375 C 23.492188 -82.925781 33.671875 -87.21875 45.578125 -87.21875 C 57.554688 -87.21875 67.734375 -82.941406 76.109375 -74.390625 C 84.484375 -65.835938 88.671875 -55.332031 88.671875 -42.875 C 88.671875 -30.351562 84.550781 -19.816406 76.3125 -11.265625 C 68.070312 -2.710938 57.828125 1.5625 45.578125 1.5625 C 33.046875 1.5625 22.710938 -2.675781 14.578125 -11.15625 C 6.453125 -19.632812 2.390625 -30.207031 2.390625 -42.875 Z M 23.46875 -42.875 C 23.46875 -38.375 24.160156 -34.269531 25.546875 -30.5625 C 26.929688 -26.863281 29.351562 -23.734375 32.8125 -21.171875 C 36.269531 -18.617188 40.523438 -17.34375 45.578125 -17.34375 C 52.847656 -17.34375 58.332031 -19.832031 62.03125 -24.8125 C 65.738281 -29.800781 67.59375 -35.820312 67.59375 -42.875 C 67.59375 -49.875 65.707031 -55.878906 61.9375 -60.890625 C 58.164062 -65.910156 52.710938 -68.421875 45.578125 -68.421875 C 38.515625 -68.421875 33.0625 -65.910156 29.21875 -60.890625 C 25.382812 -55.878906 23.46875 -49.875 23.46875 -42.875 Z M 23.46875 -42.875 "/></g></g></g><g fill="#ffffff" fill-opacity="1"><g transform="translate(92.86975, 218.706409)"><g><path d="M 34.578125 -39.765625 C 31.117188 -39.765625 28.140625 -38.484375 25.640625 -35.921875 C 23.148438 -33.359375 21.90625 -30.28125 21.90625 -26.6875 C 21.90625 -23.019531 23.148438 -19.90625 25.640625 -17.34375 C 28.140625 -14.78125 31.117188 -13.5 34.578125 -13.5 C 36.234375 -13.5 37.804688 -13.707031 39.296875 -14.125 C 40.785156 -14.539062 41.875 -14.953125 42.5625 -15.359375 L 43.5 -15.984375 L 49.734375 -3.21875 C 49.242188 -2.875 48.566406 -2.441406 47.703125 -1.921875 C 46.835938 -1.398438 44.863281 -0.691406 41.78125 0.203125 C 38.707031 1.109375 35.40625 1.5625 31.875 1.5625 C 24.050781 1.5625 17.179688 -1.1875 11.265625 -6.6875 C 5.347656 -12.195312 2.390625 -18.789062 2.390625 -26.46875 C 2.390625 -34.226562 5.347656 -40.894531 11.265625 -46.46875 C 17.179688 -52.039062 24.050781 -54.828125 31.875 -54.828125 C 35.40625 -54.828125 38.65625 -54.410156 41.625 -53.578125 C 44.601562 -52.742188 46.71875 -51.910156 47.96875 -51.078125 L 49.734375 -49.84375 L 43.5 -37.28125 C 41.21875 -38.9375 38.242188 -39.765625 34.578125 -39.765625 Z M 34.578125 -39.765625 "/></g></g></g><g fill="#ffffff" fill-opacity="1"><g transform="translate(133.676569, 218.706409)"><g><path d="M 9.34375 -53.265625 L 9.34375 -73.09375 L 27.71875 -73.09375 L 27.71875 -53.265625 L 38.9375 -53.265625 L 38.9375 -39.25 L 27.71875 -39.25 L 27.71875 -22.328125 C 27.71875 -17.410156 29.101562 -14.953125 31.875 -14.953125 C 32.5625 -14.953125 33.285156 -15.085938 34.046875 -15.359375 C 34.816406 -15.640625 35.410156 -15.921875 35.828125 -16.203125 L 36.4375 -16.609375 L 41.015625 -1.765625 C 37.066406 0.453125 32.566406 1.5625 27.515625 1.5625 C 24.054688 1.5625 21.078125 0.957031 18.578125 -0.25 C 16.085938 -1.46875 14.203125 -3.097656 12.921875 -5.140625 C 11.640625 -7.179688 10.722656 -9.328125 10.171875 -11.578125 C 9.617188 -13.828125 9.34375 -16.234375 9.34375 -18.796875 L 9.34375 -39.25 L 1.65625 -39.25 L 1.65625 -53.265625 Z M 9.34375 -53.265625 "/></g></g></g><g fill="#ffffff" fill-opacity="1"><g transform="translate(164.515299, 218.706409)"><g><path d="M 9.859375 -6.59375 C 4.878906 -12.03125 2.390625 -18.691406 2.390625 -26.578125 C 2.390625 -34.472656 4.878906 -41.15625 9.859375 -46.625 C 14.847656 -52.09375 21.179688 -54.828125 28.859375 -54.828125 C 35.921875 -54.828125 41.738281 -52.609375 46.3125 -48.171875 L 46.3125 -53.265625 L 64.6875 -53.265625 L 64.6875 0 L 46.515625 0 L 46.515625 -6.015625 L 46.3125 -6.015625 C 41.738281 -0.960938 35.921875 1.5625 28.859375 1.5625 C 21.179688 1.5625 14.847656 -1.15625 9.859375 -6.59375 Z M 25.484375 -35.609375 C 23.097656 -33.253906 21.90625 -30.242188 21.90625 -26.578125 C 21.90625 -22.910156 23.046875 -19.914062 25.328125 -17.59375 C 27.617188 -15.28125 30.628906 -14.125 34.359375 -14.125 C 37.960938 -14.125 40.921875 -15.300781 43.234375 -17.65625 C 45.554688 -20.007812 46.71875 -22.984375 46.71875 -26.578125 C 46.71875 -30.242188 45.523438 -33.253906 43.140625 -35.609375 C 40.753906 -37.960938 37.828125 -39.140625 34.359375 -39.140625 C 30.835938 -39.140625 27.878906 -37.960938 25.484375 -35.609375 Z M 25.484375 -35.609375 "/></g></g></g><g fill="#ffffff" fill-opacity="1"><g transform="translate(225.258269, 218.706409)"><g><path d="M 6.234375 0 L 6.234375 -53.265625 L 24.609375 -53.265625 L 24.609375 -47.65625 L 24.8125 -47.65625 C 29.59375 -52.4375 34.679688 -54.828125 40.078125 -54.828125 C 42.703125 -54.828125 45.3125 -54.476562 47.90625 -53.78125 C 50.507812 -53.09375 53.003906 -52.019531 55.390625 -50.5625 C 57.773438 -49.113281 59.710938 -47.054688 61.203125 -44.390625 C 62.691406 -41.722656 63.4375 -38.625 63.4375 -35.09375 L 63.4375 0 L 45.0625 0 L 45.0625 -30.109375 C 45.0625 -32.878906 44.175781 -35.300781 42.40625 -37.375 C 40.644531 -39.457031 38.347656 -40.5 35.515625 -40.5 C 32.742188 -40.5 30.234375 -39.425781 27.984375 -37.28125 C 25.734375 -35.132812 24.609375 -32.742188 24.609375 -30.109375 L 24.609375 0 Z M 6.234375 0 "/></g></g></g><g fill="#ffffff" fill-opacity="1"><g transform="translate(283.716885, 218.706409)"><g><path d="M 60.109375 -24.09375 L 21.5 -24.09375 C 21.5 -20.351562 22.707031 -17.582031 25.125 -15.78125 C 27.550781 -13.976562 30.179688 -13.078125 33.015625 -13.078125 C 35.992188 -13.078125 38.347656 -13.472656 40.078125 -14.265625 C 41.804688 -15.066406 43.78125 -16.644531 46 -19 L 59.28125 -12.359375 C 53.75 -3.078125 44.546875 1.5625 31.671875 1.5625 C 23.640625 1.5625 16.75 -1.1875 11 -6.6875 C 5.257812 -12.195312 2.390625 -18.828125 2.390625 -26.578125 C 2.390625 -34.328125 5.257812 -40.972656 11 -46.515625 C 16.75 -52.054688 23.640625 -54.828125 31.671875 -54.828125 C 40.109375 -54.828125 46.972656 -52.382812 52.265625 -47.5 C 57.566406 -42.625 60.21875 -35.648438 60.21875 -26.578125 C 60.21875 -25.335938 60.179688 -24.507812 60.109375 -24.09375 Z M 22.015625 -34.265625 L 42.265625 -34.265625 C 41.847656 -37.035156 40.753906 -39.160156 38.984375 -40.640625 C 37.222656 -42.128906 34.957031 -42.875 32.1875 -42.875 C 29.144531 -42.875 26.722656 -42.078125 24.921875 -40.484375 C 23.117188 -38.898438 22.148438 -36.828125 22.015625 -34.265625 Z M 22.015625 -34.265625 "/></g></g></g><g fill="#ffffff" fill-opacity="1"><g transform="translate(336.153119, 218.706409)"><g><path d="M 18.0625 -22.21875 C 21.382812 -22.21875 24.203125 -21.054688 26.515625 -18.734375 C 28.835938 -16.421875 30 -13.601562 30 -10.28125 C 30 -7.03125 28.835938 -4.242188 26.515625 -1.921875 C 24.203125 0.398438 21.382812 1.5625 18.0625 1.5625 C 14.8125 1.5625 12.023438 0.398438 9.703125 -1.921875 C 7.390625 -4.242188 6.234375 -7.03125 6.234375 -10.28125 C 6.234375 -13.601562 7.390625 -16.421875 9.703125 -18.734375 C 12.023438 -21.054688 14.8125 -22.21875 18.0625 -22.21875 Z M 18.0625 -22.21875 "/></g></g></g></svg>